HIERARCHY
ROOT joint_Root
{
	OFFSET 0.0 0.0 0.0
	CHANNELS 6 Xposition Yposition Zposition Zrotation Xrotation Yrotation 
	JOINT Hips
	{
		OFFSET 4.5925 91.4895 -427.239
		CHANNELS 6 Xposition Yposition Zposition Zrotation Xrotation Yrotation 
		JOINT Spine
		{
			OFFSET 15.7357 0.0 0.0
			CHANNELS 6 Xposition Yposition Zposition Zrotation Xrotation Yrotation 
			JOINT Chest
			{
				OFFSET 8.98455 -0.406207 0.0
				CHANNELS 6 Xposition Yposition Zposition Zrotation Xrotation Yrotation 
				JOINT Neck
				{
					OFFSET 16.3773 0.0 0.0
					CHANNELS 6 Xposition Yposition Zposition Zrotation Xrotation Yrotation 
					JOINT Head
					{
						OFFSET 6.45672 0.0 0.0
						CHANNELS 6 Xposition Yposition Zposition Zrotation Xrotation Yrotation 
						End Site
						{
							OFFSET 0.0 0.0 0.0
						}
					}
				}
				JOINT Shoulder_L
				{
					OFFSET 12.9942 -0.242716 4.98039
					CHANNELS 6 Xposition Yposition Zposition Zrotation Xrotation Yrotation 
					JOINT UpperArm_L
					{
						OFFSET 5.34809 0.0 0.0
						CHANNELS 6 Xposition Yposition Zposition Zrotation Xrotation Yrotation 
						JOINT LowerArm_L
						{
							OFFSET 24.3286 1.87007e-05 0.0
							CHANNELS 6 Xposition Yposition Zposition Zrotation Xrotation Yrotation 
							JOINT Hand_L
							{
								OFFSET 22.2916 0.0 0.0
								CHANNELS 6 Xposition Yposition Zposition Zrotation Xrotation Yrotation 
								End Site
								{
									OFFSET 0.0 0.0 0.0
								}
							}
						}
					}
				}
				JOINT Shoulder_R
				{
					OFFSET 12.9945 -0.242716 -4.98039
					CHANNELS 6 Xposition Yposition Zposition Zrotation Xrotation Yrotation 
					JOINT UpperArm_R
					{
						OFFSET -5.34813 0.0 0.0
						CHANNELS 6 Xposition Yposition Zposition Zrotation Xrotation Yrotation 
						JOINT LowerArm_R
						{
							OFFSET -24.3289 0.000322201 0.0
							CHANNELS 6 Xposition Yposition Zposition Zrotation Xrotation Yrotation 
							JOINT Hand_R
							{
								OFFSET -22.2915 -0.000108084 0.0
								CHANNELS 6 Xposition Yposition Zposition Zrotation Xrotation Yrotation 
								End Site
								{
									OFFSET 0.0 0.0 0.0
								}
							}
						}
					}
				}
			}
		}
		JOINT UpperLeg_L
		{
			OFFSET -2.19248 -6.46944 0.0
			CHANNELS 6 Xposition Yposition Zposition Zrotation Xrotation Yrotation 
			JOINT LowerLeg_L
			{
				OFFSET 39.0811 0.0 -1.23785e-05
				CHANNELS 6 Xposition Yposition Zposition Zrotation Xrotation Yrotation 
				JOINT Foot_L
				{
					OFFSET 40.9854 0.0 -1.26872e-05
					CHANNELS 6 Xposition Yposition Zposition Zrotation Xrotation Yrotation 
					JOINT Toes_L
					{
						OFFSET 11.7543 0.0 0.0
						CHANNELS 6 Xposition Yposition Zposition Zrotation Xrotation Yrotation 
						End Site
						{
							OFFSET 0.0 0.0 0.0
						}
					}
				}
			}
		}
		JOINT UpperLeg_R
		{
			OFFSET -2.19251 6.46944 0.0
			CHANNELS 6 Xposition Yposition Zposition Zrotation Xrotation Yrotation 
			JOINT LowerLeg_R
			{
				OFFSET -39.0811 -0.00228153 -0.0401928
				CHANNELS 6 Xposition Yposition Zposition Zrotation Xrotation Yrotation 
				JOINT Foot_R
				{
					OFFSET -40.9854 0.0 0.0
					CHANNELS 6 Xposition Yposition Zposition Zrotation Xrotation Yrotation 
					JOINT Toes_R
					{
						OFFSET -11.7543 0.0 0.0
						CHANNELS 6 Xposition Yposition Zposition Zrotation Xrotation Yrotation 
						End Site
						{
							OFFSET 0.0 0.0 0.0
						}
					}
				}
			}
		}
	}
}
MOTION
Frames:	8
Frame Time:	0.0333333
0.000000 0.000000 0.000000 0.000000 0.000000 -0.000000 -0.429646 90.673100 -4.845020 89.220100 -3.805900 11.060000 15.735700 0.000005 -0.000001 88.631900 75.877700 -88.840400 8.984550 -0.406207 -0.000000 20.470200 -0.681568 -0.295290 16.377300 -0.000001 -0.000001 10.531300 -3.991600 -0.336414 6.456720 -0.000001 -0.000000 -9.401800 -3.068460 0.581567 12.994200 -0.242716 4.980390 -89.642800 -1.226610 -73.762200 5.348090 -0.000007 -0.000001 -74.086800 -26.082400 -83.119700 24.328600 0.000019 0.000005 43.671300 -8.407890 -98.707900 22.291600 -0.000001 0.000005 12.387500 4.924750 8.880400 12.994500 -0.242716 -4.980390 89.132200 9.098040 -84.528100 -5.348130 -0.000001 -0.000004 -54.600900 35.707200 -27.850700 -24.328900 0.000322 -0.000009 1.369900 3.401740 -21.965800 -22.291500 -0.000108 -0.000004 16.631600 5.419350 -3.577210 -2.192480 -6.469440 -0.000000 -174.577000 -11.582300 -3.129380 39.081100 -0.000007 -0.000012 -0.165974 0.256738 32.881700 40.985400 -0.000006 -0.000013 0.561686 5.921150 -68.527800 11.754300 -0.000000 0.000003 -0.000065 -0.000715 -16.605200 -2.192510 6.469440 -0.000001 174.960000 19.867500 177.890000 -39.081100 -0.002282 -0.040193 -0.153914 0.250351 32.127500 -40.985400 0.000008 0.000006 4.187780 13.977300 -68.868000 -11.754300 -0.000006 -0.000006 -0.003404 -0.045090 -18.407000
0.000000 0.000000 0.000000 0.000000 0.000000 -0.000000 -0.415003 90.670500 -4.855250 89.211300 -3.822440 11.072800 15.735700 0.000005 -0.000001 88.647700 75.869800 -88.860800 8.984550 -0.406207 -0.000000 20.486200 -0.674874 -0.305770 16.377300 -0.000001 -0.000001 10.549000 -3.990520 -0.362323 6.456720 -0.000001 -0.000000 -9.409430 -3.055770 0.558485 12.994200 -0.242716 4.980390 -89.645300 -1.217030 -73.748900 5.348090 -0.000007 -0.000001 -74.052600 -26.051500 -83.174900 24.328600 0.000019 0.000005 43.703700 -8.422300 -98.712800 22.291600 -0.000001 0.000005 12.429200 4.920880 8.958710 12.994500 -0.242716 -4.980390 89.136400 9.082770 -84.545300 -5.348130 -0.000001 -0.000004 -54.606000 35.683100 -27.870700 -24.328900 0.000322 -0.000009 1.378400 3.420180 -21.981300 -22.291500 -0.000108 -0.000004 16.601500 5.420150 -3.604200 -2.192480 -6.469440 -0.000000 -174.579000 -11.554000 -3.130920 39.081100 -0.000007 -0.000012 -0.164751 0.254656 32.901300 40.985400 -0.000006 -0.000013 0.567541 5.916920 -68.535600 11.754300 -0.000000 0.000003 -0.000063 -0.000694 -16.604400 -2.192510 6.469440 -0.000001 174.949000 19.866900 177.892000 -39.081100 -0.002282 -0.040193 -0.156512 0.254472 32.129100 -40.985400 0.000008 0.000006 4.143920 14.019800 -68.845100 -11.754300 -0.000006 -0.000006 -0.003445 -0.045539 -18.425300
0.000000 0.000000 0.000000 0.000000 0.000000 -0.000000 -0.403429 90.674300 -4.864990 89.219400 -3.824980 11.117700 15.735700 0.000005 -0.000001 88.642300 75.855700 -88.864500 8.984550 -0.406207 -0.000000 20.514300 -0.679141 -0.322965 16.377300 -0.000001 -0.000001 10.594800 -3.995850 -0.369038 6.456720 -0.000001 -0.000000 -9.465060 -3.070620 0.520872 12.994200 -0.242716 4.980390 -89.642300 -1.225890 -73.733300 5.348090 -0.000007 -0.000001 -74.057200 -26.038900 -83.173300 24.328600 0.000019 0.000005 43.681900 -8.456940 -98.754400 22.291600 -0.000001 0.000005 12.362800 4.925170 8.871600 12.994500 -0.242716 -4.980390 89.136400 9.078560 -84.543200 -5.348130 -0.000001 -0.000004 -54.607200 35.686200 -27.885100 -24.328900 0.000322 -0.000009 1.373240 3.401450 -22.015900 -22.291500 -0.000108 -0.000004 16.596800 5.420590 -3.619010 -2.192480 -6.469440 -0.000000 -174.588000 -11.563300 -3.077470 39.081100 -0.000007 -0.000012 -0.166066 0.256906 32.879300 40.985400 -0.000006 -0.000013 0.579179 5.914770 -68.523400 11.754300 -0.000000 0.000003 -0.000065 -0.000715 -16.605200 -2.192510 6.469440 -0.000001 174.920000 19.891900 177.939000 -39.081100 -0.002282 -0.040193 -0.152632 0.248290 32.129400 -40.985400 0.000008 0.000006 4.238190 14.019500 -68.868700 -11.754300 -0.000006 -0.000006 -0.003476 -0.045876 -18.439000
0.000000 0.000000 0.000000 0.000000 0.000000 -0.000000 -0.385159 90.666900 -4.874400 89.231000 -3.826820 11.141900 15.735700 0.000005 -0.000001 88.646100 75.852500 -88.877100 8.984550 -0.406207 -0.000000 20.520800 -0.678402 -0.340695 16.377300 -0.000001 -0.000001 10.627600 -4.035750 -0.352063 6.456720 -0.000001 -0.000000 -9.427880 -3.115910 0.500240 12.994200 -0.242716 4.980390 -89.641100 -1.232220 -73.758400 5.348090 -0.000007 -0.000001 -73.999600 -26.034500 -83.093800 24.328600 0.000019 0.000005 43.613800 -8.488490 -98.806900 22.291600 -0.000001 0.000005 12.437000 4.925740 8.860370 12.994500 -0.242716 -4.980390 89.138000 9.073730 -84.550100 -5.348130 -0.000001 -0.000004 -54.582000 35.733800 -27.922000 -24.328900 0.000322 -0.000009 1.361100 3.371110 -22.017300 -22.291500 -0.000108 -0.000004 16.612700 5.420080 -3.601750 -2.192480 -6.469440 -0.000000 -174.606000 -11.589400 -3.087130 39.081100 -0.000007 -0.000012 -0.165441 0.255574 32.916500 40.985400 -0.000006 -0.000013 0.593011 5.904420 -68.527900 11.754300 -0.000000 0.000003 -0.000057 -0.000639 -16.602300 -2.192510 6.469440 -0.000001 174.886000 19.856700 177.941000 -39.081100 -0.002282 -0.040193 -0.157387 0.255651 32.150700 -40.985400 0.000008 0.000006 4.088540 14.022100 -68.828400 -11.754300 -0.000006 -0.000006 -0.003552 -0.046692 -18.472200
0.000000 0.000000 0.000000 0.000000 0.000000 -0.000000 -0.372828 90.669300 -4.883660 89.219000 -3.795740 11.175900 15.735700 0.000005 -0.000001 88.657600 75.847400 -88.887000 8.984550 -0.406207 -0.000000 20.531100 -0.672939 -0.338507 16.377300 -0.000001 -0.000001 10.678000 -4.079860 -0.296785 6.456720 -0.000001 -0.000000 -9.365220 -3.167680 0.507432 12.994200 -0.242716 4.980390 -89.642300 -1.229360 -73.776400 5.348090 -0.000007 -0.000001 -73.961900 -25.964700 -83.016800 24.328600 0.000019 0.000005 43.455400 -8.461660 -98.827700 22.291600 -0.000001 0.000005 12.533000 4.930020 8.773560 12.994500 -0.242716 -4.980390 89.133800 9.085990 -84.530900 -5.348130 -0.000001 -0.000004 -54.588100 35.737300 -27.926900 -24.328900 0.000322 -0.000009 1.384170 3.429550 -22.010000 -22.291500 -0.000108 -0.000004 16.582600 5.419850 -3.594030 -2.192480 -6.469440 -0.000000 -174.601000 -11.553400 -3.053670 39.081100 -0.000007 -0.000012 -0.165789 0.256159 32.911800 40.985400 -0.000006 -0.000013 0.603097 5.911200 -68.526500 11.754300 -0.000000 0.000003 -0.000064 -0.000702 -16.604700 -2.192510 6.469440 -0.000001 174.890000 19.850700 177.976000 -39.081100 -0.002282 -0.040193 -0.152536 0.247952 32.148700 -40.985400 0.000008 0.000006 4.180620 13.988600 -68.850600 -11.754300 -0.000006 -0.000006 -0.003452 -0.045620 -18.428500
0.000000 0.000000 0.000000 0.000000 0.000000 -0.000000 -0.357608 90.663700 -4.898930 89.216100 -3.762910 11.189200 15.735700 0.000005 -0.000001 88.636800 75.842500 -88.862400 8.984550 -0.406207 -0.000000 20.540600 -0.682781 -0.329103 16.377300 -0.000001 -0.000001 10.702300 -4.110280 -0.212149 6.456720 -0.000001 -0.000000 -9.312050 -3.205040 0.523154 12.994200 -0.242716 4.980390 -89.650000 -1.203420 -73.783500 5.348090 -0.000007 -0.000001 -73.928200 -25.913900 -82.921700 24.328600 0.000019 0.000005 43.514500 -8.476430 -98.824800 22.291600 -0.000001 0.000005 12.568800 4.928230 8.809920 12.994500 -0.242716 -4.980390 89.134200 9.078290 -84.528900 -5.348130 -0.000001 -0.000004 -54.619100 35.705200 -27.925200 -24.328900 0.000322 -0.000009 1.401060 3.472070 -22.006400 -22.291500 -0.000108 -0.000004 16.604500 5.419540 -3.583650 -2.192480 -6.469440 -0.000000 -174.615000 -11.506200 -3.076730 39.081100 -0.000007 -0.000012 -0.165599 0.255527 32.946300 40.985400 -0.000006 -0.000013 0.613184 5.913410 -68.530500 11.754300 -0.000000 0.000003 -0.000069 -0.000749 -16.606500 -2.192510 6.469440 -0.000001 174.871000 19.873200 177.970000 -39.081100 -0.002282 -0.040193 -0.155390 0.252284 32.170100 -40.985400 0.000008 0.000006 4.131550 13.990100 -68.835000 -11.754300 -0.000006 -0.000006 -0.003633 -0.047569 -18.507900
0.000000 0.000000 0.000000 0.000000 0.000000 -0.000000 -0.345232 90.666000 -4.917610 89.211900 -3.746990 11.214500 15.735700 0.000005 -0.000001 88.654400 75.832700 -88.881900 8.984550 -0.406207 -0.000000 20.560500 -0.674979 -0.334241 16.377300 -0.000001 -0.000001 10.727600 -4.139690 -0.116523 6.456720 -0.000001 -0.000000 -9.246700 -3.240520 0.586397 12.994200 -0.242716 4.980390 -89.650300 -1.202190 -73.779100 5.348090 -0.000007 -0.000001 -73.929300 -25.866100 -82.859000 24.328600 0.000019 0.000005 43.512400 -8.480810 -98.829900 22.291600 -0.000001 0.000005 12.498500 4.928150 8.811520 12.994500 -0.242716 -4.980390 89.130100 9.100060 -84.516100 -5.348130 -0.000001 -0.000004 -54.588900 35.738300 -27.947000 -24.328900 0.000322 -0.000009 1.384290 3.426540 -22.029200 -22.291500 -0.000108 -0.000004 16.637500 5.418520 -3.549040 -2.192480 -6.469440 -0.000000 -174.619000 -11.539200 -3.063090 39.081100 -0.000007 -0.000012 -0.163240 0.251910 32.943900 40.985400 -0.000006 -0.000013 0.636832 5.929680 -68.518100 11.754300 -0.000000 0.000003 -0.000061 -0.000672 -16.603600 -2.192510 6.469440 -0.000001 174.859000 19.898400 177.988000 -39.081100 -0.002282 -0.040193 -0.153411 0.249239 32.159700 -40.985400 0.000008 0.000006 4.134340 13.999300 -68.815000 -11.754300 -0.000006 -0.000006 -0.003572 -0.046913 -18.481200
0.000000 0.000000 0.000000 0.000000 0.000000 -0.000000 -0.331583 90.663100 -4.939250 89.211800 -3.733420 11.231200 15.735700 0.000005 -0.000001 88.652400 75.819500 -88.872700 8.984550 -0.406207 -0.000000 20.586800 -0.675729 -0.319271 16.377300 -0.000001 -0.000001 10.745300 -4.160080 -0.078149 6.456720 -0.000001 -0.000000 -9.224940 -3.293330 0.608760 12.994200 -0.242716 4.980390 -89.657900 -1.175290 -73.769600 5.348090 -0.000007 -0.000001 -73.940100 -25.869000 -82.821200 24.328600 0.000019 0.000005 43.450800 -8.474880 -98.842600 22.291600 -0.000001 0.000005 12.409800 4.926180 8.851340 12.994500 -0.242716 -4.980390 89.132900 9.084600 -84.524400 -5.348130 -0.000001 -0.000004 -54.539800 35.789000 -28.025600 -24.328900 0.000322 -0.000009 1.348070 3.342950 -21.992700 -22.291500 -0.000108 -0.000004 16.645100 5.419990 -3.598610 -2.192480 -6.469440 -0.000000 -174.625000 -11.517100 -3.080790 39.081100 -0.000007 -0.000012 -0.164609 0.253824 32.964300 40.985400 -0.000006 -0.000013 0.646102 5.941540 -68.507500 11.754300 -0.000000 0.000003 -0.000061 -0.000675 -16.603700 -2.192510 6.469440 -0.000001 174.853000 19.874400 177.985000 -39.081100 -0.002282 -0.040193 -0.154477 0.250831 32.170300 -40.985400 0.000008 0.000006 4.082240 13.975700 -68.792400 -11.754300 -0.000006 -0.000006 -0.003465 -0.045756 -18.434100
